<?xml version="1.0" encoding="UTF-8" standalone="no" ?>
<!DOCTYPE svg PUBLIC "-//W3C//DTD SVG 1.1//EN" "http://www.w3.org/Graphics/SVG/1.1/DTD/svg11.dtd">
<svg xmlns="http://www.w3.org/2000/svg" xmlns:xlink="http://www.w3.org/1999/xlink" version="1.1" width="1080" height="1080" viewBox="0 0 1080 1080" xml:space="preserve">
<desc>Created with Fabric.js 5.2.4</desc>
<defs>
</defs>
<rect x="0" y="0" width="100%" height="100%" fill="transparent"></rect>
<g transform="matrix(1 0 0 1 540 540)" id="87e4111a-19e9-4b30-b1dd-3fcc36ee67ff"  >
</g>
<g transform="matrix(1 0 0 1 540 540)" id="5071e0ce-528e-4708-b862-2d697b80bd01"  >
<rect style="stroke: none; stroke-width: 1; stroke-dasharray: none; stroke-linecap: butt; stroke-dashoffset: 0; stroke-linejoin: miter; stroke-miterlimit: 4; fill: rgb(255,255,255); fill-rule: nonzero; opacity: 1; visibility: hidden;" vector-effect="non-scaling-stroke"  x="-540" y="-540" rx="0" ry="0" width="1080" height="1080" />
</g>
<g transform="matrix(0 0 0 0 0 0)"  >
<g style=""   >
</g>
</g>
<g transform="matrix(0 0 0 0 0 0)"  >
<g style=""   >
</g>
</g>
<g transform="matrix(0 0 0 0 0 0)"  >
<g style=""   >
</g>
</g>
<g transform="matrix(0 0 0 0 0 0)"  >
<g style=""   >
		<g transform="matrix(1 0 0 1 -14.3 0)"  >
<path style="stroke: none; stroke-width: 1; stroke-dasharray: none; stroke-linecap: butt; stroke-dashoffset: 0; stroke-linejoin: miter; stroke-miterlimit: 4; fill: rgb(0,0,0); fill-rule: nonzero; opacity: 1;" vector-effect="non-scaling-stroke"  transform=" translate(-36.28, -61.44)" d="M 59.07 0 C 62.79 0 66.14 1.52 68.59 3.95 C 71.03 6.390000000000001 72.54 9.76 72.54 13.469999999999999 L 72.54 24.729999999999997 L 68.67 24.729999999999997 L 68.67 16.939999999999998 L 3.88 16.939999999999998 L 3.88 103.98 L 68.69 103.98 L 68.69 90.4 L 72.56 90.4 L 72.56 109.41000000000001 C 72.56 113.13000000000001 71.04 116.48000000000002 68.61 118.93 C 66.17 121.37 62.8 122.88000000000001 59.09 122.88000000000001 L 13.47 122.88000000000001 C 9.75 122.88000000000001 6.4 121.36000000000001 3.950000000000001 118.93 C 1.52 116.49 0 113.12 0 109.41 L 0 13.47 C 0 9.75 1.52 6.4 3.95 3.95 C 6.48 1.43 9.9 0 13.47 0 L 59.07 0 L 59.07 0 z M 36.28 108.21 C 39.32 108.21 41.8 110.69 41.8 113.72999999999999 C 41.8 116.77 39.32 119.25999999999999 36.28 119.25999999999999 C 33.24 119.25999999999999 30.76 116.77999999999999 30.76 113.72999999999999 C 30.75 110.69 33.22 108.21 36.28 108.21 L 36.28 108.21 L 36.28 108.21 L 36.28 108.21 L 36.28 108.21 z" stroke-linecap="round" />
</g>
		<g transform="matrix(1 0 0 1 9.56 -3.17)"  >
<path style="stroke: none; stroke-width: 1; stroke-dasharray: none; stroke-linecap: butt; stroke-dashoffset: 0; stroke-linejoin: miter; stroke-miterlimit: 4; fill: rgb(0,0,0); fill-rule: nonzero; opacity: 1;" vector-effect="non-scaling-stroke"  transform=" translate(-60.14, -58.27)" d="M 26.63 71.86 L 38.01 71.86 L 38.01 75.54 L 26.63 75.54 L 26.63 71.86 L 26.63 71.86 z M 76.96 62.22 C 79.11 62.22 81.00999999999999 63.24 82.21 64.85 C 83.41 63.24999999999999 85.33 62.21999999999999 87.49 62.21999999999999 C 91.11999999999999 62.21999999999999 94.03999999999999 65.14999999999999 94.03999999999999 68.77 C 94.03999999999999 72.39999999999999 91.10999999999999 75.35 87.49 75.35 C 85.33999999999999 75.35 83.41 74.3 82.21 72.69999999999999 C 81.00999999999999 74.29999999999998 79.11 75.35 76.96 75.35 C 73.33999999999999 75.35 70.38 72.39999999999999 70.38 68.77 C 70.38 65.15 73.34 62.22 76.96 62.22 L 76.96 62.22 L 76.96 62.22 L 76.96 62.22 z M 96.64 81.77 C 97.16 81.77 97.64 81.55 97.96 81.2 C 98.30999999999999 80.87 98.53999999999999 80.4 98.53999999999999 79.88000000000001 L 98.53999999999999 54.87 L 98.53999999999999 54.87 L 21.73 54.87 L 21.73 79.88 C 21.73 80.39999999999999 21.93 80.88 22.28 81.19999999999999 C 22.630000000000003 81.54999999999998 23.11 81.76999999999998 23.630000000000003 81.76999999999998 C 47.96 81.77 72.31 81.77 96.64 81.77 L 96.64 81.77 z M 23.63 84.37 C 22.38 84.37 21.25 83.87 20.45 83.04 C 19.63 82.24000000000001 19.13 81.12 19.13 79.87 L 19.13 36.67 C 19.13 35.440000000000005 19.63 34.32 20.43 33.49 C 21.25 32.67 22.38 32.17 23.63 32.17 L 23.63 32.17 L 96.64 32.17 C 97.87 32.17 99.02 32.67 99.82000000000001 33.49 C 100.64 34.29 101.15 35.440000000000005 101.15 36.67 L 101.15 79.88 C 101.15 81.1 100.65 82.22999999999999 99.82000000000001 83.05 C 99.02000000000001 83.85 97.87 84.38 96.64 84.38 C 72.28 84.37 47.98 84.37 23.63 84.37 L 23.63 84.37 z M 21.73 41.89 L 98.54 41.89 L 98.54 36.66 C 98.54 36.16 98.32000000000001 35.68 97.96000000000001 35.339999999999996 C 97.61000000000001 34.989999999999995 97.14000000000001 34.76 96.64000000000001 34.76 L 23.63 34.76 C 23.11 34.76 22.63 34.98 22.279999999999998 35.339999999999996 C 21.929999999999996 35.69 21.729999999999997 36.16 21.729999999999997 36.66 L 21.729999999999997 41.89 L 21.73 41.89 L 21.73 41.89 L 21.73 41.89 z M 43.22 71.86 L 62.1 71.86 L 62.1 75.54 L 43.22 75.54 L 43.22 71.86 L 43.22 71.86 z" stroke-linecap="round" />
</g>
</g>
</g>
<g transform="matrix(0 0 0 0 0 0)"  >
<g style=""   >
		<g transform="matrix(1 0 0 1 -14.3 0)"  >
<path style="stroke: none; stroke-width: 1; stroke-dasharray: none; stroke-linecap: butt; stroke-dashoffset: 0; stroke-linejoin: miter; stroke-miterlimit: 4; fill: rgb(0,0,0); fill-rule: nonzero; opacity: 1;" vector-effect="non-scaling-stroke"  transform=" translate(-36.28, -61.44)" d="M 59.07 0 C 62.79 0 66.14 1.52 68.59 3.95 C 71.03 6.390000000000001 72.54 9.76 72.54 13.469999999999999 L 72.54 24.729999999999997 L 68.67 24.729999999999997 L 68.67 16.939999999999998 L 3.88 16.939999999999998 L 3.88 103.98 L 68.69 103.98 L 68.69 90.4 L 72.56 90.4 L 72.56 109.41000000000001 C 72.56 113.13000000000001 71.04 116.48000000000002 68.61 118.93 C 66.17 121.37 62.8 122.88000000000001 59.09 122.88000000000001 L 13.47 122.88000000000001 C 9.75 122.88000000000001 6.4 121.36000000000001 3.950000000000001 118.93 C 1.52 116.49 0 113.12 0 109.41 L 0 13.47 C 0 9.75 1.52 6.4 3.95 3.95 C 6.48 1.43 9.9 0 13.47 0 L 59.07 0 L 59.07 0 z M 36.28 108.21 C 39.32 108.21 41.8 110.69 41.8 113.72999999999999 C 41.8 116.77 39.32 119.25999999999999 36.28 119.25999999999999 C 33.24 119.25999999999999 30.76 116.77999999999999 30.76 113.72999999999999 C 30.75 110.69 33.22 108.21 36.28 108.21 L 36.28 108.21 L 36.28 108.21 L 36.28 108.21 L 36.28 108.21 z" stroke-linecap="round" />
</g>
		<g transform="matrix(1 0 0 1 9.56 -3.17)"  >
<path style="stroke: none; stroke-width: 1; stroke-dasharray: none; stroke-linecap: butt; stroke-dashoffset: 0; stroke-linejoin: miter; stroke-miterlimit: 4; fill: rgb(0,0,0); fill-rule: nonzero; opacity: 1;" vector-effect="non-scaling-stroke"  transform=" translate(-60.14, -58.27)" d="M 26.63 71.86 L 38.01 71.86 L 38.01 75.54 L 26.63 75.54 L 26.63 71.86 L 26.63 71.86 z M 76.96 62.22 C 79.11 62.22 81.00999999999999 63.24 82.21 64.85 C 83.41 63.24999999999999 85.33 62.21999999999999 87.49 62.21999999999999 C 91.11999999999999 62.21999999999999 94.03999999999999 65.14999999999999 94.03999999999999 68.77 C 94.03999999999999 72.39999999999999 91.10999999999999 75.35 87.49 75.35 C 85.33999999999999 75.35 83.41 74.3 82.21 72.69999999999999 C 81.00999999999999 74.29999999999998 79.11 75.35 76.96 75.35 C 73.33999999999999 75.35 70.38 72.39999999999999 70.38 68.77 C 70.38 65.15 73.34 62.22 76.96 62.22 L 76.96 62.22 L 76.96 62.22 L 76.96 62.22 z M 96.64 81.77 C 97.16 81.77 97.64 81.55 97.96 81.2 C 98.30999999999999 80.87 98.53999999999999 80.4 98.53999999999999 79.88000000000001 L 98.53999999999999 54.87 L 98.53999999999999 54.87 L 21.73 54.87 L 21.73 79.88 C 21.73 80.39999999999999 21.93 80.88 22.28 81.19999999999999 C 22.630000000000003 81.54999999999998 23.11 81.76999999999998 23.630000000000003 81.76999999999998 C 47.96 81.77 72.31 81.77 96.64 81.77 L 96.64 81.77 z M 23.63 84.37 C 22.38 84.37 21.25 83.87 20.45 83.04 C 19.63 82.24000000000001 19.13 81.12 19.13 79.87 L 19.13 36.67 C 19.13 35.440000000000005 19.63 34.32 20.43 33.49 C 21.25 32.67 22.38 32.17 23.63 32.17 L 23.63 32.17 L 96.64 32.17 C 97.87 32.17 99.02 32.67 99.82000000000001 33.49 C 100.64 34.29 101.15 35.440000000000005 101.15 36.67 L 101.15 79.88 C 101.15 81.1 100.65 82.22999999999999 99.82000000000001 83.05 C 99.02000000000001 83.85 97.87 84.38 96.64 84.38 C 72.28 84.37 47.98 84.37 23.63 84.37 L 23.63 84.37 z M 21.73 41.89 L 98.54 41.89 L 98.54 36.66 C 98.54 36.16 98.32000000000001 35.68 97.96000000000001 35.339999999999996 C 97.61000000000001 34.989999999999995 97.14000000000001 34.76 96.64000000000001 34.76 L 23.63 34.76 C 23.11 34.76 22.63 34.98 22.279999999999998 35.339999999999996 C 21.929999999999996 35.69 21.729999999999997 36.16 21.729999999999997 36.66 L 21.729999999999997 41.89 L 21.73 41.89 L 21.73 41.89 L 21.73 41.89 z M 43.22 71.86 L 62.1 71.86 L 62.1 75.54 L 43.22 75.54 L 43.22 71.86 L 43.22 71.86 z" stroke-linecap="round" />
</g>
</g>
</g>
<g transform="matrix(0 0 0 0 0 0)"  >
<g style=""   >
		<g transform="matrix(1 0 0 1 -14.3 0)"  >
<path style="stroke: none; stroke-width: 1; stroke-dasharray: none; stroke-linecap: butt; stroke-dashoffset: 0; stroke-linejoin: miter; stroke-miterlimit: 4; fill: rgb(0,0,0); fill-rule: nonzero; opacity: 1;" vector-effect="non-scaling-stroke"  transform=" translate(-36.28, -61.44)" d="M 59.07 0 C 62.79 0 66.14 1.52 68.59 3.95 C 71.03 6.390000000000001 72.54 9.76 72.54 13.469999999999999 L 72.54 24.729999999999997 L 68.67 24.729999999999997 L 68.67 16.939999999999998 L 3.88 16.939999999999998 L 3.88 103.98 L 68.69 103.98 L 68.69 90.4 L 72.56 90.4 L 72.56 109.41000000000001 C 72.56 113.13000000000001 71.04 116.48000000000002 68.61 118.93 C 66.17 121.37 62.8 122.88000000000001 59.09 122.88000000000001 L 13.47 122.88000000000001 C 9.75 122.88000000000001 6.4 121.36000000000001 3.950000000000001 118.93 C 1.52 116.49 0 113.12 0 109.41 L 0 13.47 C 0 9.75 1.52 6.4 3.95 3.95 C 6.48 1.43 9.9 0 13.47 0 L 59.07 0 L 59.07 0 z M 36.28 108.21 C 39.32 108.21 41.8 110.69 41.8 113.72999999999999 C 41.8 116.77 39.32 119.25999999999999 36.28 119.25999999999999 C 33.24 119.25999999999999 30.76 116.77999999999999 30.76 113.72999999999999 C 30.75 110.69 33.22 108.21 36.28 108.21 L 36.28 108.21 L 36.28 108.21 L 36.28 108.21 L 36.28 108.21 z" stroke-linecap="round" />
</g>
		<g transform="matrix(1 0 0 1 9.56 -3.17)"  >
<path style="stroke: none; stroke-width: 1; stroke-dasharray: none; stroke-linecap: butt; stroke-dashoffset: 0; stroke-linejoin: miter; stroke-miterlimit: 4; fill: rgb(0,0,0); fill-rule: nonzero; opacity: 1;" vector-effect="non-scaling-stroke"  transform=" translate(-60.14, -58.27)" d="M 26.63 71.86 L 38.01 71.86 L 38.01 75.54 L 26.63 75.54 L 26.63 71.86 L 26.63 71.86 z M 76.96 62.22 C 79.11 62.22 81.00999999999999 63.24 82.21 64.85 C 83.41 63.24999999999999 85.33 62.21999999999999 87.49 62.21999999999999 C 91.11999999999999 62.21999999999999 94.03999999999999 65.14999999999999 94.03999999999999 68.77 C 94.03999999999999 72.39999999999999 91.10999999999999 75.35 87.49 75.35 C 85.33999999999999 75.35 83.41 74.3 82.21 72.69999999999999 C 81.00999999999999 74.29999999999998 79.11 75.35 76.96 75.35 C 73.33999999999999 75.35 70.38 72.39999999999999 70.38 68.77 C 70.38 65.15 73.34 62.22 76.96 62.22 L 76.96 62.22 L 76.96 62.22 L 76.96 62.22 z M 96.64 81.77 C 97.16 81.77 97.64 81.55 97.96 81.2 C 98.30999999999999 80.87 98.53999999999999 80.4 98.53999999999999 79.88000000000001 L 98.53999999999999 54.87 L 98.53999999999999 54.87 L 21.73 54.87 L 21.73 79.88 C 21.73 80.39999999999999 21.93 80.88 22.28 81.19999999999999 C 22.630000000000003 81.54999999999998 23.11 81.76999999999998 23.630000000000003 81.76999999999998 C 47.96 81.77 72.31 81.77 96.64 81.77 L 96.64 81.77 z M 23.63 84.37 C 22.38 84.37 21.25 83.87 20.45 83.04 C 19.63 82.24000000000001 19.13 81.12 19.13 79.87 L 19.13 36.67 C 19.13 35.440000000000005 19.63 34.32 20.43 33.49 C 21.25 32.67 22.38 32.17 23.63 32.17 L 23.63 32.17 L 96.64 32.17 C 97.87 32.17 99.02 32.67 99.82000000000001 33.49 C 100.64 34.29 101.15 35.440000000000005 101.15 36.67 L 101.15 79.88 C 101.15 81.1 100.65 82.22999999999999 99.82000000000001 83.05 C 99.02000000000001 83.85 97.87 84.38 96.64 84.38 C 72.28 84.37 47.98 84.37 23.63 84.37 L 23.63 84.37 z M 21.73 41.89 L 98.54 41.89 L 98.54 36.66 C 98.54 36.16 98.32000000000001 35.68 97.96000000000001 35.339999999999996 C 97.61000000000001 34.989999999999995 97.14000000000001 34.76 96.64000000000001 34.76 L 23.63 34.76 C 23.11 34.76 22.63 34.98 22.279999999999998 35.339999999999996 C 21.929999999999996 35.69 21.729999999999997 36.16 21.729999999999997 36.66 L 21.729999999999997 41.89 L 21.73 41.89 L 21.73 41.89 L 21.73 41.89 z M 43.22 71.86 L 62.1 71.86 L 62.1 75.54 L 43.22 75.54 L 43.22 71.86 L 43.22 71.86 z" stroke-linecap="round" />
</g>
</g>
</g>
<g transform="matrix(0 0 0 0 0 0)"  >
<g style=""   >
		<g transform="matrix(1 0 0 1 -14.3 0)"  >
<path style="stroke: none; stroke-width: 1; stroke-dasharray: none; stroke-linecap: butt; stroke-dashoffset: 0; stroke-linejoin: miter; stroke-miterlimit: 4; fill: rgb(0,0,0); fill-rule: nonzero; opacity: 1;" vector-effect="non-scaling-stroke"  transform=" translate(-36.28, -61.44)" d="M 59.07 0 C 62.79 0 66.14 1.52 68.59 3.95 C 71.03 6.390000000000001 72.54 9.76 72.54 13.469999999999999 L 72.54 24.729999999999997 L 68.67 24.729999999999997 L 68.67 16.939999999999998 L 3.88 16.939999999999998 L 3.88 103.98 L 68.69 103.98 L 68.69 90.4 L 72.56 90.4 L 72.56 109.41000000000001 C 72.56 113.13000000000001 71.04 116.48000000000002 68.61 118.93 C 66.17 121.37 62.8 122.88000000000001 59.09 122.88000000000001 L 13.47 122.88000000000001 C 9.75 122.88000000000001 6.4 121.36000000000001 3.950000000000001 118.93 C 1.52 116.49 0 113.12 0 109.41 L 0 13.47 C 0 9.75 1.52 6.4 3.95 3.95 C 6.48 1.43 9.9 0 13.47 0 L 59.07 0 L 59.07 0 z M 36.28 108.21 C 39.32 108.21 41.8 110.69 41.8 113.72999999999999 C 41.8 116.77 39.32 119.25999999999999 36.28 119.25999999999999 C 33.24 119.25999999999999 30.76 116.77999999999999 30.76 113.72999999999999 C 30.75 110.69 33.22 108.21 36.28 108.21 L 36.28 108.21 L 36.28 108.21 L 36.28 108.21 L 36.28 108.21 z" stroke-linecap="round" />
</g>
		<g transform="matrix(1 0 0 1 9.56 -3.17)"  >
<path style="stroke: none; stroke-width: 1; stroke-dasharray: none; stroke-linecap: butt; stroke-dashoffset: 0; stroke-linejoin: miter; stroke-miterlimit: 4; fill: rgb(0,0,0); fill-rule: nonzero; opacity: 1;" vector-effect="non-scaling-stroke"  transform=" translate(-60.14, -58.27)" d="M 26.63 71.86 L 38.01 71.86 L 38.01 75.54 L 26.63 75.54 L 26.63 71.86 L 26.63 71.86 z M 76.96 62.22 C 79.11 62.22 81.00999999999999 63.24 82.21 64.85 C 83.41 63.24999999999999 85.33 62.21999999999999 87.49 62.21999999999999 C 91.11999999999999 62.21999999999999 94.03999999999999 65.14999999999999 94.03999999999999 68.77 C 94.03999999999999 72.39999999999999 91.10999999999999 75.35 87.49 75.35 C 85.33999999999999 75.35 83.41 74.3 82.21 72.69999999999999 C 81.00999999999999 74.29999999999998 79.11 75.35 76.96 75.35 C 73.33999999999999 75.35 70.38 72.39999999999999 70.38 68.77 C 70.38 65.15 73.34 62.22 76.96 62.22 L 76.96 62.22 L 76.96 62.22 L 76.96 62.22 z M 96.64 81.77 C 97.16 81.77 97.64 81.55 97.96 81.2 C 98.30999999999999 80.87 98.53999999999999 80.4 98.53999999999999 79.88000000000001 L 98.53999999999999 54.87 L 98.53999999999999 54.87 L 21.73 54.87 L 21.73 79.88 C 21.73 80.39999999999999 21.93 80.88 22.28 81.19999999999999 C 22.630000000000003 81.54999999999998 23.11 81.76999999999998 23.630000000000003 81.76999999999998 C 47.96 81.77 72.31 81.77 96.64 81.77 L 96.64 81.77 z M 23.63 84.37 C 22.38 84.37 21.25 83.87 20.45 83.04 C 19.63 82.24000000000001 19.13 81.12 19.13 79.87 L 19.13 36.67 C 19.13 35.440000000000005 19.63 34.32 20.43 33.49 C 21.25 32.67 22.38 32.17 23.63 32.17 L 23.63 32.17 L 96.64 32.17 C 97.87 32.17 99.02 32.67 99.82000000000001 33.49 C 100.64 34.29 101.15 35.440000000000005 101.15 36.67 L 101.15 79.88 C 101.15 81.1 100.65 82.22999999999999 99.82000000000001 83.05 C 99.02000000000001 83.85 97.87 84.38 96.64 84.38 C 72.28 84.37 47.98 84.37 23.63 84.37 L 23.63 84.37 z M 21.73 41.89 L 98.54 41.89 L 98.54 36.66 C 98.54 36.16 98.32000000000001 35.68 97.96000000000001 35.339999999999996 C 97.61000000000001 34.989999999999995 97.14000000000001 34.76 96.64000000000001 34.76 L 23.63 34.76 C 23.11 34.76 22.63 34.98 22.279999999999998 35.339999999999996 C 21.929999999999996 35.69 21.729999999999997 36.16 21.729999999999997 36.66 L 21.729999999999997 41.89 L 21.73 41.89 L 21.73 41.89 L 21.73 41.89 z M 43.22 71.86 L 62.1 71.86 L 62.1 75.54 L 43.22 75.54 L 43.22 71.86 L 43.22 71.86 z" stroke-linecap="round" />
</g>
</g>
</g>
<g transform="matrix(0 0 0 0 0 0)"  >
<g style=""   >
		<g transform="matrix(1 0 0 1 -14.3 0)"  >
<path style="stroke: none; stroke-width: 1; stroke-dasharray: none; stroke-linecap: butt; stroke-dashoffset: 0; stroke-linejoin: miter; stroke-miterlimit: 4; fill: rgb(0,0,0); fill-rule: nonzero; opacity: 1;" vector-effect="non-scaling-stroke"  transform=" translate(-36.28, -61.44)" d="M 59.07 0 C 62.79 0 66.14 1.52 68.59 3.95 C 71.03 6.390000000000001 72.54 9.76 72.54 13.469999999999999 L 72.54 24.729999999999997 L 68.67 24.729999999999997 L 68.67 16.939999999999998 L 3.88 16.939999999999998 L 3.88 103.98 L 68.69 103.98 L 68.69 90.4 L 72.56 90.4 L 72.56 109.41000000000001 C 72.56 113.13000000000001 71.04 116.48000000000002 68.61 118.93 C 66.17 121.37 62.8 122.88000000000001 59.09 122.88000000000001 L 13.47 122.88000000000001 C 9.75 122.88000000000001 6.4 121.36000000000001 3.950000000000001 118.93 C 1.52 116.49 0 113.12 0 109.41 L 0 13.47 C 0 9.75 1.52 6.4 3.95 3.95 C 6.48 1.43 9.9 0 13.47 0 L 59.07 0 L 59.07 0 z M 36.28 108.21 C 39.32 108.21 41.8 110.69 41.8 113.72999999999999 C 41.8 116.77 39.32 119.25999999999999 36.28 119.25999999999999 C 33.24 119.25999999999999 30.76 116.77999999999999 30.76 113.72999999999999 C 30.75 110.69 33.22 108.21 36.28 108.21 L 36.28 108.21 L 36.28 108.21 L 36.28 108.21 L 36.28 108.21 z" stroke-linecap="round" />
</g>
		<g transform="matrix(1 0 0 1 9.56 -3.17)"  >
<path style="stroke: none; stroke-width: 1; stroke-dasharray: none; stroke-linecap: butt; stroke-dashoffset: 0; stroke-linejoin: miter; stroke-miterlimit: 4; fill: rgb(0,0,0); fill-rule: nonzero; opacity: 1;" vector-effect="non-scaling-stroke"  transform=" translate(-60.14, -58.27)" d="M 26.63 71.86 L 38.01 71.86 L 38.01 75.54 L 26.63 75.54 L 26.63 71.86 L 26.63 71.86 z M 76.96 62.22 C 79.11 62.22 81.00999999999999 63.24 82.21 64.85 C 83.41 63.24999999999999 85.33 62.21999999999999 87.49 62.21999999999999 C 91.11999999999999 62.21999999999999 94.03999999999999 65.14999999999999 94.03999999999999 68.77 C 94.03999999999999 72.39999999999999 91.10999999999999 75.35 87.49 75.35 C 85.33999999999999 75.35 83.41 74.3 82.21 72.69999999999999 C 81.00999999999999 74.29999999999998 79.11 75.35 76.96 75.35 C 73.33999999999999 75.35 70.38 72.39999999999999 70.38 68.77 C 70.38 65.15 73.34 62.22 76.96 62.22 L 76.96 62.22 L 76.96 62.22 L 76.96 62.22 z M 96.64 81.77 C 97.16 81.77 97.64 81.55 97.96 81.2 C 98.30999999999999 80.87 98.53999999999999 80.4 98.53999999999999 79.88000000000001 L 98.53999999999999 54.87 L 98.53999999999999 54.87 L 21.73 54.87 L 21.73 79.88 C 21.73 80.39999999999999 21.93 80.88 22.28 81.19999999999999 C 22.630000000000003 81.54999999999998 23.11 81.76999999999998 23.630000000000003 81.76999999999998 C 47.96 81.77 72.31 81.77 96.64 81.77 L 96.64 81.77 z M 23.63 84.37 C 22.38 84.37 21.25 83.87 20.45 83.04 C 19.63 82.24000000000001 19.13 81.12 19.13 79.87 L 19.13 36.67 C 19.13 35.440000000000005 19.63 34.32 20.43 33.49 C 21.25 32.67 22.38 32.17 23.63 32.17 L 23.63 32.17 L 96.64 32.17 C 97.87 32.17 99.02 32.67 99.82000000000001 33.49 C 100.64 34.29 101.15 35.440000000000005 101.15 36.67 L 101.15 79.88 C 101.15 81.1 100.65 82.22999999999999 99.82000000000001 83.05 C 99.02000000000001 83.85 97.87 84.38 96.64 84.38 C 72.28 84.37 47.98 84.37 23.63 84.37 L 23.63 84.37 z M 21.73 41.89 L 98.54 41.89 L 98.54 36.66 C 98.54 36.16 98.32000000000001 35.68 97.96000000000001 35.339999999999996 C 97.61000000000001 34.989999999999995 97.14000000000001 34.76 96.64000000000001 34.76 L 23.63 34.76 C 23.11 34.76 22.63 34.98 22.279999999999998 35.339999999999996 C 21.929999999999996 35.69 21.729999999999997 36.16 21.729999999999997 36.66 L 21.729999999999997 41.89 L 21.73 41.89 L 21.73 41.89 L 21.73 41.89 z M 43.22 71.86 L 62.1 71.86 L 62.1 75.54 L 43.22 75.54 L 43.22 71.86 L 43.22 71.86 z" stroke-linecap="round" />
</g>
</g>
</g>
<g transform="matrix(0 0 0 0 0 0)"  >
<g style=""   >
		<g transform="matrix(1 0 0 1 -14.3 0)"  >
<path style="stroke: none; stroke-width: 1; stroke-dasharray: none; stroke-linecap: butt; stroke-dashoffset: 0; stroke-linejoin: miter; stroke-miterlimit: 4; fill: rgb(0,0,0); fill-rule: nonzero; opacity: 1;" vector-effect="non-scaling-stroke"  transform=" translate(-36.28, -61.44)" d="M 59.07 0 C 62.79 0 66.14 1.52 68.59 3.95 C 71.03 6.390000000000001 72.54 9.76 72.54 13.469999999999999 L 72.54 24.729999999999997 L 68.67 24.729999999999997 L 68.67 16.939999999999998 L 3.88 16.939999999999998 L 3.88 103.98 L 68.69 103.98 L 68.69 90.4 L 72.56 90.4 L 72.56 109.41000000000001 C 72.56 113.13000000000001 71.04 116.48000000000002 68.61 118.93 C 66.17 121.37 62.8 122.88000000000001 59.09 122.88000000000001 L 13.47 122.88000000000001 C 9.75 122.88000000000001 6.4 121.36000000000001 3.950000000000001 118.93 C 1.52 116.49 0 113.12 0 109.41 L 0 13.47 C 0 9.75 1.52 6.4 3.95 3.95 C 6.48 1.43 9.9 0 13.47 0 L 59.07 0 L 59.07 0 z M 36.28 108.21 C 39.32 108.21 41.8 110.69 41.8 113.72999999999999 C 41.8 116.77 39.32 119.25999999999999 36.28 119.25999999999999 C 33.24 119.25999999999999 30.76 116.77999999999999 30.76 113.72999999999999 C 30.75 110.69 33.22 108.21 36.28 108.21 L 36.28 108.21 L 36.28 108.21 L 36.28 108.21 L 36.28 108.21 z" stroke-linecap="round" />
</g>
		<g transform="matrix(1 0 0 1 9.56 -3.17)"  >
<path style="stroke: none; stroke-width: 1; stroke-dasharray: none; stroke-linecap: butt; stroke-dashoffset: 0; stroke-linejoin: miter; stroke-miterlimit: 4; fill: rgb(0,0,0); fill-rule: nonzero; opacity: 1;" vector-effect="non-scaling-stroke"  transform=" translate(-60.14, -58.27)" d="M 26.63 71.86 L 38.01 71.86 L 38.01 75.54 L 26.63 75.54 L 26.63 71.86 L 26.63 71.86 z M 76.96 62.22 C 79.11 62.22 81.00999999999999 63.24 82.21 64.85 C 83.41 63.24999999999999 85.33 62.21999999999999 87.49 62.21999999999999 C 91.11999999999999 62.21999999999999 94.03999999999999 65.14999999999999 94.03999999999999 68.77 C 94.03999999999999 72.39999999999999 91.10999999999999 75.35 87.49 75.35 C 85.33999999999999 75.35 83.41 74.3 82.21 72.69999999999999 C 81.00999999999999 74.29999999999998 79.11 75.35 76.96 75.35 C 73.33999999999999 75.35 70.38 72.39999999999999 70.38 68.77 C 70.38 65.15 73.34 62.22 76.96 62.22 L 76.96 62.22 L 76.96 62.22 L 76.96 62.22 z M 96.64 81.77 C 97.16 81.77 97.64 81.55 97.96 81.2 C 98.30999999999999 80.87 98.53999999999999 80.4 98.53999999999999 79.88000000000001 L 98.53999999999999 54.87 L 98.53999999999999 54.87 L 21.73 54.87 L 21.73 79.88 C 21.73 80.39999999999999 21.93 80.88 22.28 81.19999999999999 C 22.630000000000003 81.54999999999998 23.11 81.76999999999998 23.630000000000003 81.76999999999998 C 47.96 81.77 72.31 81.77 96.64 81.77 L 96.64 81.77 z M 23.63 84.37 C 22.38 84.37 21.25 83.87 20.45 83.04 C 19.63 82.24000000000001 19.13 81.12 19.13 79.87 L 19.13 36.67 C 19.13 35.440000000000005 19.63 34.32 20.43 33.49 C 21.25 32.67 22.38 32.17 23.63 32.17 L 23.63 32.17 L 96.64 32.17 C 97.87 32.17 99.02 32.67 99.82000000000001 33.49 C 100.64 34.29 101.15 35.440000000000005 101.15 36.67 L 101.15 79.88 C 101.15 81.1 100.65 82.22999999999999 99.82000000000001 83.05 C 99.02000000000001 83.85 97.87 84.38 96.64 84.38 C 72.28 84.37 47.98 84.37 23.63 84.37 L 23.63 84.37 z M 21.73 41.89 L 98.54 41.89 L 98.54 36.66 C 98.54 36.16 98.32000000000001 35.68 97.96000000000001 35.339999999999996 C 97.61000000000001 34.989999999999995 97.14000000000001 34.76 96.64000000000001 34.76 L 23.63 34.76 C 23.11 34.76 22.63 34.98 22.279999999999998 35.339999999999996 C 21.929999999999996 35.69 21.729999999999997 36.16 21.729999999999997 36.66 L 21.729999999999997 41.89 L 21.73 41.89 L 21.73 41.89 L 21.73 41.89 z M 43.22 71.86 L 62.1 71.86 L 62.1 75.54 L 43.22 75.54 L 43.22 71.86 L 43.22 71.86 z" stroke-linecap="round" />
</g>
</g>
</g>
<g transform="matrix(0 0 0 0 0 0)"  >
<g style=""   >
		<g transform="matrix(1 0 0 1 -14.3 0)"  >
<path style="stroke: none; stroke-width: 1; stroke-dasharray: none; stroke-linecap: butt; stroke-dashoffset: 0; stroke-linejoin: miter; stroke-miterlimit: 4; fill: rgb(0,0,0); fill-rule: nonzero; opacity: 1;" vector-effect="non-scaling-stroke"  transform=" translate(-36.28, -61.44)" d="M 59.07 0 C 62.79 0 66.14 1.52 68.59 3.95 C 71.03 6.390000000000001 72.54 9.76 72.54 13.469999999999999 L 72.54 24.729999999999997 L 68.67 24.729999999999997 L 68.67 16.939999999999998 L 3.88 16.939999999999998 L 3.88 103.98 L 68.69 103.98 L 68.69 90.4 L 72.56 90.4 L 72.56 109.41000000000001 C 72.56 113.13000000000001 71.04 116.48000000000002 68.61 118.93 C 66.17 121.37 62.8 122.88000000000001 59.09 122.88000000000001 L 13.47 122.88000000000001 C 9.75 122.88000000000001 6.4 121.36000000000001 3.950000000000001 118.93 C 1.52 116.49 0 113.12 0 109.41 L 0 13.47 C 0 9.75 1.52 6.4 3.95 3.95 C 6.48 1.43 9.9 0 13.47 0 L 59.07 0 L 59.07 0 z M 36.28 108.21 C 39.32 108.21 41.8 110.69 41.8 113.72999999999999 C 41.8 116.77 39.32 119.25999999999999 36.28 119.25999999999999 C 33.24 119.25999999999999 30.76 116.77999999999999 30.76 113.72999999999999 C 30.75 110.69 33.22 108.21 36.28 108.21 L 36.28 108.21 L 36.28 108.21 L 36.28 108.21 L 36.28 108.21 z" stroke-linecap="round" />
</g>
		<g transform="matrix(1 0 0 1 9.56 -3.17)"  >
<path style="stroke: none; stroke-width: 1; stroke-dasharray: none; stroke-linecap: butt; stroke-dashoffset: 0; stroke-linejoin: miter; stroke-miterlimit: 4; fill: rgb(0,0,0); fill-rule: nonzero; opacity: 1;" vector-effect="non-scaling-stroke"  transform=" translate(-60.14, -58.27)" d="M 26.63 71.86 L 38.01 71.86 L 38.01 75.54 L 26.63 75.54 L 26.63 71.86 L 26.63 71.86 z M 76.96 62.22 C 79.11 62.22 81.00999999999999 63.24 82.21 64.85 C 83.41 63.24999999999999 85.33 62.21999999999999 87.49 62.21999999999999 C 91.11999999999999 62.21999999999999 94.03999999999999 65.14999999999999 94.03999999999999 68.77 C 94.03999999999999 72.39999999999999 91.10999999999999 75.35 87.49 75.35 C 85.33999999999999 75.35 83.41 74.3 82.21 72.69999999999999 C 81.00999999999999 74.29999999999998 79.11 75.35 76.96 75.35 C 73.33999999999999 75.35 70.38 72.39999999999999 70.38 68.77 C 70.38 65.15 73.34 62.22 76.96 62.22 L 76.96 62.22 L 76.96 62.22 L 76.96 62.22 z M 96.64 81.77 C 97.16 81.77 97.64 81.55 97.96 81.2 C 98.30999999999999 80.87 98.53999999999999 80.4 98.53999999999999 79.88000000000001 L 98.53999999999999 54.87 L 98.53999999999999 54.87 L 21.73 54.87 L 21.73 79.88 C 21.73 80.39999999999999 21.93 80.88 22.28 81.19999999999999 C 22.630000000000003 81.54999999999998 23.11 81.76999999999998 23.630000000000003 81.76999999999998 C 47.96 81.77 72.31 81.77 96.64 81.77 L 96.64 81.77 z M 23.63 84.37 C 22.38 84.37 21.25 83.87 20.45 83.04 C 19.63 82.24000000000001 19.13 81.12 19.13 79.87 L 19.13 36.67 C 19.13 35.440000000000005 19.63 34.32 20.43 33.49 C 21.25 32.67 22.38 32.17 23.63 32.17 L 23.63 32.17 L 96.64 32.17 C 97.87 32.17 99.02 32.67 99.82000000000001 33.49 C 100.64 34.29 101.15 35.440000000000005 101.15 36.67 L 101.15 79.88 C 101.15 81.1 100.65 82.22999999999999 99.82000000000001 83.05 C 99.02000000000001 83.85 97.87 84.38 96.64 84.38 C 72.28 84.37 47.98 84.37 23.63 84.37 L 23.63 84.37 z M 21.73 41.89 L 98.54 41.89 L 98.54 36.66 C 98.54 36.16 98.32000000000001 35.68 97.96000000000001 35.339999999999996 C 97.61000000000001 34.989999999999995 97.14000000000001 34.76 96.64000000000001 34.76 L 23.63 34.76 C 23.11 34.76 22.63 34.98 22.279999999999998 35.339999999999996 C 21.929999999999996 35.69 21.729999999999997 36.16 21.729999999999997 36.66 L 21.729999999999997 41.89 L 21.73 41.89 L 21.73 41.89 L 21.73 41.89 z M 43.22 71.86 L 62.1 71.86 L 62.1 75.54 L 43.22 75.54 L 43.22 71.86 L 43.22 71.86 z" stroke-linecap="round" />
</g>
</g>
</g>
<g transform="matrix(0 0 0 0 0 0)"  >
<g style=""   >
		<g transform="matrix(1 0 0 1 -14.3 0)"  >
<path style="stroke: none; stroke-width: 1; stroke-dasharray: none; stroke-linecap: butt; stroke-dashoffset: 0; stroke-linejoin: miter; stroke-miterlimit: 4; fill: rgb(0,0,0); fill-rule: nonzero; opacity: 1;" vector-effect="non-scaling-stroke"  transform=" translate(-36.28, -61.44)" d="M 59.07 0 C 62.79 0 66.14 1.52 68.59 3.95 C 71.03 6.390000000000001 72.54 9.76 72.54 13.469999999999999 L 72.54 24.729999999999997 L 68.67 24.729999999999997 L 68.67 16.939999999999998 L 3.88 16.939999999999998 L 3.88 103.98 L 68.69 103.98 L 68.69 90.4 L 72.56 90.4 L 72.56 109.41000000000001 C 72.56 113.13000000000001 71.04 116.48000000000002 68.61 118.93 C 66.17 121.37 62.8 122.88000000000001 59.09 122.88000000000001 L 13.47 122.88000000000001 C 9.75 122.88000000000001 6.4 121.36000000000001 3.950000000000001 118.93 C 1.52 116.49 0 113.12 0 109.41 L 0 13.47 C 0 9.75 1.52 6.4 3.95 3.95 C 6.48 1.43 9.9 0 13.47 0 L 59.07 0 L 59.07 0 z M 36.28 108.21 C 39.32 108.21 41.8 110.69 41.8 113.72999999999999 C 41.8 116.77 39.32 119.25999999999999 36.28 119.25999999999999 C 33.24 119.25999999999999 30.76 116.77999999999999 30.76 113.72999999999999 C 30.75 110.69 33.22 108.21 36.28 108.21 L 36.28 108.21 L 36.28 108.21 L 36.28 108.21 L 36.28 108.21 z" stroke-linecap="round" />
</g>
		<g transform="matrix(1 0 0 1 9.56 -3.17)"  >
<path style="stroke: none; stroke-width: 1; stroke-dasharray: none; stroke-linecap: butt; stroke-dashoffset: 0; stroke-linejoin: miter; stroke-miterlimit: 4; fill: rgb(0,0,0); fill-rule: nonzero; opacity: 1;" vector-effect="non-scaling-stroke"  transform=" translate(-60.14, -58.27)" d="M 26.63 71.86 L 38.01 71.86 L 38.01 75.54 L 26.63 75.54 L 26.63 71.86 L 26.63 71.86 z M 76.96 62.22 C 79.11 62.22 81.00999999999999 63.24 82.21 64.85 C 83.41 63.24999999999999 85.33 62.21999999999999 87.49 62.21999999999999 C 91.11999999999999 62.21999999999999 94.03999999999999 65.14999999999999 94.03999999999999 68.77 C 94.03999999999999 72.39999999999999 91.10999999999999 75.35 87.49 75.35 C 85.33999999999999 75.35 83.41 74.3 82.21 72.69999999999999 C 81.00999999999999 74.29999999999998 79.11 75.35 76.96 75.35 C 73.33999999999999 75.35 70.38 72.39999999999999 70.38 68.77 C 70.38 65.15 73.34 62.22 76.96 62.22 L 76.96 62.22 L 76.96 62.22 L 76.96 62.22 z M 96.64 81.77 C 97.16 81.77 97.64 81.55 97.96 81.2 C 98.30999999999999 80.87 98.53999999999999 80.4 98.53999999999999 79.88000000000001 L 98.53999999999999 54.87 L 98.53999999999999 54.87 L 21.73 54.87 L 21.73 79.88 C 21.73 80.39999999999999 21.93 80.88 22.28 81.19999999999999 C 22.630000000000003 81.54999999999998 23.11 81.76999999999998 23.630000000000003 81.76999999999998 C 47.96 81.77 72.31 81.77 96.64 81.77 L 96.64 81.77 z M 23.63 84.37 C 22.38 84.37 21.25 83.87 20.45 83.04 C 19.63 82.24000000000001 19.13 81.12 19.13 79.87 L 19.13 36.67 C 19.13 35.440000000000005 19.63 34.32 20.43 33.49 C 21.25 32.67 22.38 32.17 23.63 32.17 L 23.63 32.17 L 96.64 32.17 C 97.87 32.17 99.02 32.67 99.82000000000001 33.49 C 100.64 34.29 101.15 35.440000000000005 101.15 36.67 L 101.15 79.88 C 101.15 81.1 100.65 82.22999999999999 99.82000000000001 83.05 C 99.02000000000001 83.85 97.87 84.38 96.64 84.38 C 72.28 84.37 47.98 84.37 23.63 84.37 L 23.63 84.37 z M 21.73 41.89 L 98.54 41.89 L 98.54 36.66 C 98.54 36.16 98.32000000000001 35.68 97.96000000000001 35.339999999999996 C 97.61000000000001 34.989999999999995 97.14000000000001 34.76 96.64000000000001 34.76 L 23.63 34.76 C 23.11 34.76 22.63 34.98 22.279999999999998 35.339999999999996 C 21.929999999999996 35.69 21.729999999999997 36.16 21.729999999999997 36.66 L 21.729999999999997 41.89 L 21.73 41.89 L 21.73 41.89 L 21.73 41.89 z M 43.22 71.86 L 62.1 71.86 L 62.1 75.54 L 43.22 75.54 L 43.22 71.86 L 43.22 71.86 z" stroke-linecap="round" />
</g>
</g>
</g>
<g transform="matrix(0 0 0 0 0 0)"  >
<g style=""   >
</g>
</g>
<g transform="matrix(0 0 0 0 0 0)"  >
<g style=""   >
</g>
</g>
<g transform="matrix(0 0 0 0 0 0)"  >
<g style=""   >
</g>
</g>
<g transform="matrix(0 0 0 0 0 0)"  >
<g style=""   >
</g>
</g>
<g transform="matrix(0 0 0 0 0 0)"  >
<g style=""   >
		<g transform="matrix(1 0 0 1 -14.3 0)"  >
<path style="stroke: none; stroke-width: 1; stroke-dasharray: none; stroke-linecap: butt; stroke-dashoffset: 0; stroke-linejoin: miter; stroke-miterlimit: 4; fill: rgb(0,0,0); fill-rule: nonzero; opacity: 1;" vector-effect="non-scaling-stroke"  transform=" translate(-36.28, -61.44)" d="M 59.07 0 C 62.79 0 66.14 1.52 68.59 3.95 C 71.03 6.390000000000001 72.54 9.76 72.54 13.469999999999999 L 72.54 24.729999999999997 L 68.67 24.729999999999997 L 68.67 16.939999999999998 L 3.88 16.939999999999998 L 3.88 103.98 L 68.69 103.98 L 68.69 90.4 L 72.56 90.4 L 72.56 109.41000000000001 C 72.56 113.13000000000001 71.04 116.48000000000002 68.61 118.93 C 66.17 121.37 62.8 122.88000000000001 59.09 122.88000000000001 L 13.47 122.88000000000001 C 9.75 122.88000000000001 6.4 121.36000000000001 3.950000000000001 118.93 C 1.52 116.49 0 113.12 0 109.41 L 0 13.47 C 0 9.75 1.52 6.4 3.95 3.95 C 6.48 1.43 9.9 0 13.47 0 L 59.07 0 L 59.07 0 z M 36.28 108.21 C 39.32 108.21 41.8 110.69 41.8 113.72999999999999 C 41.8 116.77 39.32 119.25999999999999 36.28 119.25999999999999 C 33.24 119.25999999999999 30.76 116.77999999999999 30.76 113.72999999999999 C 30.75 110.69 33.22 108.21 36.28 108.21 L 36.28 108.21 L 36.28 108.21 L 36.28 108.21 L 36.28 108.21 z" stroke-linecap="round" />
</g>
		<g transform="matrix(1 0 0 1 9.56 -3.17)"  >
<path style="stroke: none; stroke-width: 1; stroke-dasharray: none; stroke-linecap: butt; stroke-dashoffset: 0; stroke-linejoin: miter; stroke-miterlimit: 4; fill: rgb(0,0,0); fill-rule: nonzero; opacity: 1;" vector-effect="non-scaling-stroke"  transform=" translate(-60.14, -58.27)" d="M 26.63 71.86 L 38.01 71.86 L 38.01 75.54 L 26.63 75.54 L 26.63 71.86 L 26.63 71.86 z M 76.96 62.22 C 79.11 62.22 81.00999999999999 63.24 82.21 64.85 C 83.41 63.24999999999999 85.33 62.21999999999999 87.49 62.21999999999999 C 91.11999999999999 62.21999999999999 94.03999999999999 65.14999999999999 94.03999999999999 68.77 C 94.03999999999999 72.39999999999999 91.10999999999999 75.35 87.49 75.35 C 85.33999999999999 75.35 83.41 74.3 82.21 72.69999999999999 C 81.00999999999999 74.29999999999998 79.11 75.35 76.96 75.35 C 73.33999999999999 75.35 70.38 72.39999999999999 70.38 68.77 C 70.38 65.15 73.34 62.22 76.96 62.22 L 76.96 62.22 L 76.96 62.22 L 76.96 62.22 z M 96.64 81.77 C 97.16 81.77 97.64 81.55 97.96 81.2 C 98.30999999999999 80.87 98.53999999999999 80.4 98.53999999999999 79.88000000000001 L 98.53999999999999 54.87 L 98.53999999999999 54.87 L 21.73 54.87 L 21.73 79.88 C 21.73 80.39999999999999 21.93 80.88 22.28 81.19999999999999 C 22.630000000000003 81.54999999999998 23.11 81.76999999999998 23.630000000000003 81.76999999999998 C 47.96 81.77 72.31 81.77 96.64 81.77 L 96.64 81.77 z M 23.63 84.37 C 22.38 84.37 21.25 83.87 20.45 83.04 C 19.63 82.24000000000001 19.13 81.12 19.13 79.87 L 19.13 36.67 C 19.13 35.440000000000005 19.63 34.32 20.43 33.49 C 21.25 32.67 22.38 32.17 23.63 32.17 L 23.63 32.17 L 96.64 32.17 C 97.87 32.17 99.02 32.67 99.82000000000001 33.49 C 100.64 34.29 101.15 35.440000000000005 101.15 36.67 L 101.15 79.88 C 101.15 81.1 100.65 82.22999999999999 99.82000000000001 83.05 C 99.02000000000001 83.85 97.87 84.38 96.64 84.38 C 72.28 84.37 47.98 84.37 23.63 84.37 L 23.63 84.37 z M 21.73 41.89 L 98.54 41.89 L 98.54 36.66 C 98.54 36.16 98.32000000000001 35.68 97.96000000000001 35.339999999999996 C 97.61000000000001 34.989999999999995 97.14000000000001 34.76 96.64000000000001 34.76 L 23.63 34.76 C 23.11 34.76 22.63 34.98 22.279999999999998 35.339999999999996 C 21.929999999999996 35.69 21.729999999999997 36.16 21.729999999999997 36.66 L 21.729999999999997 41.89 L 21.73 41.89 L 21.73 41.89 L 21.73 41.89 z M 43.22 71.86 L 62.1 71.86 L 62.1 75.54 L 43.22 75.54 L 43.22 71.86 L 43.22 71.86 z" stroke-linecap="round" />
</g>
</g>
</g>
<g transform="matrix(0 0 0 0 0 0)"  >
<g style=""   >
		<g transform="matrix(1 0 0 1 -14.3 0)"  >
<path style="stroke: none; stroke-width: 1; stroke-dasharray: none; stroke-linecap: butt; stroke-dashoffset: 0; stroke-linejoin: miter; stroke-miterlimit: 4; fill: rgb(0,0,0); fill-rule: nonzero; opacity: 1;" vector-effect="non-scaling-stroke"  transform=" translate(-36.28, -61.44)" d="M 59.07 0 C 62.79 0 66.14 1.52 68.59 3.95 C 71.03 6.390000000000001 72.54 9.76 72.54 13.469999999999999 L 72.54 24.729999999999997 L 68.67 24.729999999999997 L 68.67 16.939999999999998 L 3.88 16.939999999999998 L 3.88 103.98 L 68.69 103.98 L 68.69 90.4 L 72.56 90.4 L 72.56 109.41000000000001 C 72.56 113.13000000000001 71.04 116.48000000000002 68.61 118.93 C 66.17 121.37 62.8 122.88000000000001 59.09 122.88000000000001 L 13.47 122.88000000000001 C 9.75 122.88000000000001 6.4 121.36000000000001 3.950000000000001 118.93 C 1.52 116.49 0 113.12 0 109.41 L 0 13.47 C 0 9.75 1.52 6.4 3.95 3.95 C 6.48 1.43 9.9 0 13.47 0 L 59.07 0 L 59.07 0 z M 36.28 108.21 C 39.32 108.21 41.8 110.69 41.8 113.72999999999999 C 41.8 116.77 39.32 119.25999999999999 36.28 119.25999999999999 C 33.24 119.25999999999999 30.76 116.77999999999999 30.76 113.72999999999999 C 30.75 110.69 33.22 108.21 36.28 108.21 L 36.28 108.21 L 36.28 108.21 L 36.28 108.21 L 36.28 108.21 z" stroke-linecap="round" />
</g>
		<g transform="matrix(1 0 0 1 9.56 -3.17)"  >
<path style="stroke: none; stroke-width: 1; stroke-dasharray: none; stroke-linecap: butt; stroke-dashoffset: 0; stroke-linejoin: miter; stroke-miterlimit: 4; fill: rgb(0,0,0); fill-rule: nonzero; opacity: 1;" vector-effect="non-scaling-stroke"  transform=" translate(-60.14, -58.27)" d="M 26.63 71.86 L 38.01 71.86 L 38.01 75.54 L 26.63 75.54 L 26.63 71.86 L 26.63 71.86 z M 76.96 62.22 C 79.11 62.22 81.00999999999999 63.24 82.21 64.85 C 83.41 63.24999999999999 85.33 62.21999999999999 87.49 62.21999999999999 C 91.11999999999999 62.21999999999999 94.03999999999999 65.14999999999999 94.03999999999999 68.77 C 94.03999999999999 72.39999999999999 91.10999999999999 75.35 87.49 75.35 C 85.33999999999999 75.35 83.41 74.3 82.21 72.69999999999999 C 81.00999999999999 74.29999999999998 79.11 75.35 76.96 75.35 C 73.33999999999999 75.35 70.38 72.39999999999999 70.38 68.77 C 70.38 65.15 73.34 62.22 76.96 62.22 L 76.96 62.22 L 76.96 62.22 L 76.96 62.22 z M 96.64 81.77 C 97.16 81.77 97.64 81.55 97.96 81.2 C 98.30999999999999 80.87 98.53999999999999 80.4 98.53999999999999 79.88000000000001 L 98.53999999999999 54.87 L 98.53999999999999 54.87 L 21.73 54.87 L 21.73 79.88 C 21.73 80.39999999999999 21.93 80.88 22.28 81.19999999999999 C 22.630000000000003 81.54999999999998 23.11 81.76999999999998 23.630000000000003 81.76999999999998 C 47.96 81.77 72.31 81.77 96.64 81.77 L 96.64 81.77 z M 23.63 84.37 C 22.38 84.37 21.25 83.87 20.45 83.04 C 19.63 82.24000000000001 19.13 81.12 19.13 79.87 L 19.13 36.67 C 19.13 35.440000000000005 19.63 34.32 20.43 33.49 C 21.25 32.67 22.38 32.17 23.63 32.17 L 23.63 32.17 L 96.64 32.17 C 97.87 32.17 99.02 32.67 99.82000000000001 33.49 C 100.64 34.29 101.15 35.440000000000005 101.15 36.67 L 101.15 79.88 C 101.15 81.1 100.65 82.22999999999999 99.82000000000001 83.05 C 99.02000000000001 83.85 97.87 84.38 96.64 84.38 C 72.28 84.37 47.98 84.37 23.63 84.37 L 23.63 84.37 z M 21.73 41.89 L 98.54 41.89 L 98.54 36.66 C 98.54 36.16 98.32000000000001 35.68 97.96000000000001 35.339999999999996 C 97.61000000000001 34.989999999999995 97.14000000000001 34.76 96.64000000000001 34.76 L 23.63 34.76 C 23.11 34.76 22.63 34.98 22.279999999999998 35.339999999999996 C 21.929999999999996 35.69 21.729999999999997 36.16 21.729999999999997 36.66 L 21.729999999999997 41.89 L 21.73 41.89 L 21.73 41.89 L 21.73 41.89 z M 43.22 71.86 L 62.1 71.86 L 62.1 75.54 L 43.22 75.54 L 43.22 71.86 L 43.22 71.86 z" stroke-linecap="round" />
</g>
</g>
</g>
<g transform="matrix(0 0 0 0 0 0)"  >
<g style=""   >
		<g transform="matrix(1 0 0 1 -14.3 0)"  >
<path style="stroke: none; stroke-width: 1; stroke-dasharray: none; stroke-linecap: butt; stroke-dashoffset: 0; stroke-linejoin: miter; stroke-miterlimit: 4; fill: rgb(0,0,0); fill-rule: nonzero; opacity: 1;" vector-effect="non-scaling-stroke"  transform=" translate(-36.28, -61.44)" d="M 59.07 0 C 62.79 0 66.14 1.52 68.59 3.95 C 71.03 6.390000000000001 72.54 9.76 72.54 13.469999999999999 L 72.54 24.729999999999997 L 68.67 24.729999999999997 L 68.67 16.939999999999998 L 3.88 16.939999999999998 L 3.88 103.98 L 68.69 103.98 L 68.69 90.4 L 72.56 90.4 L 72.56 109.41000000000001 C 72.56 113.13000000000001 71.04 116.48000000000002 68.61 118.93 C 66.17 121.37 62.8 122.88000000000001 59.09 122.88000000000001 L 13.47 122.88000000000001 C 9.75 122.88000000000001 6.4 121.36000000000001 3.950000000000001 118.93 C 1.52 116.49 0 113.12 0 109.41 L 0 13.47 C 0 9.75 1.52 6.4 3.95 3.95 C 6.48 1.43 9.9 0 13.47 0 L 59.07 0 L 59.07 0 z M 36.28 108.21 C 39.32 108.21 41.8 110.69 41.8 113.72999999999999 C 41.8 116.77 39.32 119.25999999999999 36.28 119.25999999999999 C 33.24 119.25999999999999 30.76 116.77999999999999 30.76 113.72999999999999 C 30.75 110.69 33.22 108.21 36.28 108.21 L 36.28 108.21 L 36.28 108.21 L 36.28 108.21 L 36.28 108.21 z" stroke-linecap="round" />
</g>
		<g transform="matrix(1 0 0 1 9.56 -3.17)"  >
<path style="stroke: none; stroke-width: 1; stroke-dasharray: none; stroke-linecap: butt; stroke-dashoffset: 0; stroke-linejoin: miter; stroke-miterlimit: 4; fill: rgb(0,0,0); fill-rule: nonzero; opacity: 1;" vector-effect="non-scaling-stroke"  transform=" translate(-60.14, -58.27)" d="M 26.63 71.86 L 38.01 71.86 L 38.01 75.54 L 26.63 75.54 L 26.63 71.86 L 26.63 71.86 z M 76.96 62.22 C 79.11 62.22 81.00999999999999 63.24 82.21 64.85 C 83.41 63.24999999999999 85.33 62.21999999999999 87.49 62.21999999999999 C 91.11999999999999 62.21999999999999 94.03999999999999 65.14999999999999 94.03999999999999 68.77 C 94.03999999999999 72.39999999999999 91.10999999999999 75.35 87.49 75.35 C 85.33999999999999 75.35 83.41 74.3 82.21 72.69999999999999 C 81.00999999999999 74.29999999999998 79.11 75.35 76.96 75.35 C 73.33999999999999 75.35 70.38 72.39999999999999 70.38 68.77 C 70.38 65.15 73.34 62.22 76.96 62.22 L 76.96 62.22 L 76.96 62.22 L 76.96 62.22 z M 96.64 81.77 C 97.16 81.77 97.64 81.55 97.96 81.2 C 98.30999999999999 80.87 98.53999999999999 80.4 98.53999999999999 79.88000000000001 L 98.53999999999999 54.87 L 98.53999999999999 54.87 L 21.73 54.87 L 21.73 79.88 C 21.73 80.39999999999999 21.93 80.88 22.28 81.19999999999999 C 22.630000000000003 81.54999999999998 23.11 81.76999999999998 23.630000000000003 81.76999999999998 C 47.96 81.77 72.31 81.77 96.64 81.77 L 96.64 81.77 z M 23.63 84.37 C 22.38 84.37 21.25 83.87 20.45 83.04 C 19.63 82.24000000000001 19.13 81.12 19.13 79.87 L 19.13 36.67 C 19.13 35.440000000000005 19.63 34.32 20.43 33.49 C 21.25 32.67 22.38 32.17 23.63 32.17 L 23.63 32.17 L 96.64 32.17 C 97.87 32.17 99.02 32.67 99.82000000000001 33.49 C 100.64 34.29 101.15 35.440000000000005 101.15 36.67 L 101.15 79.88 C 101.15 81.1 100.65 82.22999999999999 99.82000000000001 83.05 C 99.02000000000001 83.85 97.87 84.38 96.64 84.38 C 72.28 84.37 47.98 84.37 23.63 84.37 L 23.63 84.37 z M 21.73 41.89 L 98.54 41.89 L 98.54 36.66 C 98.54 36.16 98.32000000000001 35.68 97.96000000000001 35.339999999999996 C 97.61000000000001 34.989999999999995 97.14000000000001 34.76 96.64000000000001 34.76 L 23.63 34.76 C 23.11 34.76 22.63 34.98 22.279999999999998 35.339999999999996 C 21.929999999999996 35.69 21.729999999999997 36.16 21.729999999999997 36.66 L 21.729999999999997 41.89 L 21.73 41.89 L 21.73 41.89 L 21.73 41.89 z M 43.22 71.86 L 62.1 71.86 L 62.1 75.54 L 43.22 75.54 L 43.22 71.86 L 43.22 71.86 z" stroke-linecap="round" />
</g>
</g>
</g>
<g transform="matrix(10.68 0 0 10.68 540.09 540.11)"  >
<g style=""   >
		<g transform="matrix(1 0 0 1 -14.29 0)"  >
<path style="stroke: none; stroke-width: 1; stroke-dasharray: none; stroke-linecap: butt; stroke-dashoffset: 0; stroke-linejoin: miter; stroke-miterlimit: 4; fill: rgb(43,220,27); fill-rule: nonzero; opacity: 1;" vector-effect="non-scaling-stroke"  transform=" translate(-36.28, -61.44)" d="M 59.07 0 C 62.79 0 66.14 1.52 68.59 3.95 C 71.03 6.390000000000001 72.54 9.76 72.54 13.469999999999999 L 72.54 24.729999999999997 L 68.67 24.729999999999997 L 68.67 16.939999999999998 L 3.88 16.939999999999998 L 3.88 103.98 L 68.69 103.98 L 68.69 90.4 L 72.56 90.4 L 72.56 109.41000000000001 C 72.56 113.13000000000001 71.04 116.48000000000002 68.61 118.93 C 66.17 121.37 62.8 122.88000000000001 59.09 122.88000000000001 L 13.47 122.88000000000001 C 9.75 122.88000000000001 6.4 121.36000000000001 3.950000000000001 118.93 C 1.52 116.49 0 113.12 0 109.41 L 0 13.47 C 0 9.75 1.52 6.4 3.95 3.95 C 6.48 1.43 9.9 0 13.47 0 L 59.07 0 L 59.07 0 z M 36.28 108.21 C 39.32 108.21 41.8 110.69 41.8 113.72999999999999 C 41.8 116.77 39.32 119.25999999999999 36.28 119.25999999999999 C 33.24 119.25999999999999 30.76 116.77999999999999 30.76 113.72999999999999 C 30.75 110.69 33.22 108.21 36.28 108.21 L 36.28 108.21 L 36.28 108.21 L 36.28 108.21 L 36.28 108.21 z" stroke-linecap="round" />
</g>
		<g transform="matrix(1 0 0 1 9.57 -3.17)"  >
<path style="stroke: none; stroke-width: 1; stroke-dasharray: none; stroke-linecap: butt; stroke-dashoffset: 0; stroke-linejoin: miter; stroke-miterlimit: 4; fill: rgb(43,220,27); fill-rule: nonzero; opacity: 1;" vector-effect="non-scaling-stroke"  transform=" translate(-60.14, -58.27)" d="M 26.63 71.86 L 38.01 71.86 L 38.01 75.54 L 26.63 75.54 L 26.63 71.86 L 26.63 71.86 z M 76.96 62.22 C 79.11 62.22 81.00999999999999 63.24 82.21 64.85 C 83.41 63.24999999999999 85.33 62.21999999999999 87.49 62.21999999999999 C 91.11999999999999 62.21999999999999 94.03999999999999 65.14999999999999 94.03999999999999 68.77 C 94.03999999999999 72.39999999999999 91.10999999999999 75.35 87.49 75.35 C 85.33999999999999 75.35 83.41 74.3 82.21 72.69999999999999 C 81.00999999999999 74.29999999999998 79.11 75.35 76.96 75.35 C 73.33999999999999 75.35 70.38 72.39999999999999 70.38 68.77 C 70.38 65.15 73.34 62.22 76.96 62.22 L 76.96 62.22 L 76.96 62.22 L 76.96 62.22 z M 96.64 81.77 C 97.16 81.77 97.64 81.55 97.96 81.2 C 98.30999999999999 80.87 98.53999999999999 80.4 98.53999999999999 79.88000000000001 L 98.53999999999999 54.87 L 98.53999999999999 54.87 L 21.73 54.87 L 21.73 79.88 C 21.73 80.39999999999999 21.93 80.88 22.28 81.19999999999999 C 22.630000000000003 81.54999999999998 23.11 81.76999999999998 23.630000000000003 81.76999999999998 C 47.96 81.77 72.31 81.77 96.64 81.77 L 96.64 81.77 z M 23.63 84.37 C 22.38 84.37 21.25 83.87 20.45 83.04 C 19.63 82.24000000000001 19.13 81.12 19.13 79.87 L 19.13 36.67 C 19.13 35.440000000000005 19.63 34.32 20.43 33.49 C 21.25 32.67 22.38 32.17 23.63 32.17 L 23.63 32.17 L 96.64 32.17 C 97.87 32.17 99.02 32.67 99.82000000000001 33.49 C 100.64 34.29 101.15 35.440000000000005 101.15 36.67 L 101.15 79.88 C 101.15 81.1 100.65 82.22999999999999 99.82000000000001 83.05 C 99.02000000000001 83.85 97.87 84.38 96.64 84.38 C 72.28 84.37 47.98 84.37 23.63 84.37 L 23.63 84.37 z M 21.73 41.89 L 98.54 41.89 L 98.54 36.66 C 98.54 36.16 98.32000000000001 35.68 97.96000000000001 35.339999999999996 C 97.61000000000001 34.989999999999995 97.14000000000001 34.76 96.64000000000001 34.76 L 23.63 34.76 C 23.11 34.76 22.63 34.98 22.279999999999998 35.339999999999996 C 21.929999999999996 35.69 21.729999999999997 36.16 21.729999999999997 36.66 L 21.729999999999997 41.89 L 21.73 41.89 L 21.73 41.89 L 21.73 41.89 z M 43.22 71.86 L 62.1 71.86 L 62.1 75.54 L 43.22 75.54 L 43.22 71.86 L 43.22 71.86 z" stroke-linecap="round" />
</g>
</g>
</g>
</svg>